<svg width="50" height="50" viewBox="0 0 50 50" fill="none" xmlns="http://www.w3.org/2000/svg">
<path d="M25 0C11.1827 0 0 11.1813 0 25C0 38.8174 11.1812 50 25 50C38.8174 50 50 38.8187 50 25C50 11.1826 38.8187 0 25 0ZM34.0076 27.7752L22.2602 34.563C21.2691 35.1356 20.0472 35.1366 19.0545 34.5639C18.0625 33.9914 17.4515 32.9331 17.4515 31.7879V18.2122C17.4515 17.0669 18.0626 16.0087 19.0545 15.4362C19.5502 15.1501 20.1034 15.007 20.6566 15.007C21.2104 15.007 21.7642 15.1504 22.2602 15.4369L34.0077 22.2247C34.9988 22.7974 35.6093 23.8552 35.6093 24.9999C35.6093 26.1447 34.9987 27.2024 34.0076 27.7752Z" fill="#E87161"/>
</svg>
