<svg width="44" height="50" viewBox="0 0 44 50" fill="none" xmlns="http://www.w3.org/2000/svg">
    <path
        d="M25.2492 8.10237V4.21972H27.0215C28.1866 4.21972 29.1313 3.27501 29.1313 2.10986C29.1313 0.944711 28.1868 0 27.0215 0H16.9785C15.8134 0 14.8687 0.944711 14.8687 2.10986C14.8687 3.27501 15.8134 4.21972 16.9785 4.21972H18.7508V8.10237C8.6677 9.66958 0.926025 18.4105 0.926025 28.9259C0.926025 40.5461 10.3799 49.9998 22 49.9998C33.6201 49.9998 43.074 40.546 43.074 28.9259C43.074 18.4105 35.3323 9.66958 25.2492 8.10237V8.10237ZM22 45.7803C12.7065 45.7803 5.14575 38.2194 5.14575 28.926C5.14575 19.6327 12.7066 12.0718 22 12.0718C31.2933 12.0718 38.8542 19.6327 38.8542 28.926C38.8542 38.2194 31.2935 45.7803 22 45.7803V45.7803Z"
        fill="black" />
    <path
        d="M24.1099 28.0493V18.1095C24.1099 16.9444 23.1651 15.9997 22 15.9997C20.8348 15.9997 19.8901 16.9444 19.8901 18.1095V29.2665C19.8901 29.6096 20.0269 29.9386 20.2699 30.1806L26.1723 36.0582C26.9982 36.8805 28.3338 36.8775 29.1561 36.052C29.9783 35.2262 29.9754 33.8903 29.1499 33.0681L24.1099 28.0493V28.0493Z"
        fill="black" />
</svg>